<svg id="visual" viewBox="0 0 900 600" width="900" height="600" xmlns="http://www.w3.org/2000/svg" xmlns:xlink="http://www.w3.org/1999/xlink" version="1.1"><rect x="0" y="0" width="900" height="600" fill="#ffffff"></rect><defs><linearGradient id="grad1_0" x1="33.3%" y1="0%" x2="100%" y2="100%"><stop offset="20%" stop-color="#ffffff" stop-opacity="1"></stop><stop offset="80%" stop-color="#ffffff" stop-opacity="1"></stop></linearGradient></defs><defs><linearGradient id="grad2_0" x1="0%" y1="0%" x2="66.7%" y2="100%"><stop offset="20%" stop-color="#ffffff" stop-opacity="1"></stop><stop offset="80%" stop-color="#ffffff" stop-opacity="1"></stop></linearGradient></defs><g transform="translate(900, 0)"><path d="M0 270.4C-23.6 249.3 -47.2 228.2 -69.8 214.9C-92.5 201.7 -114.3 196.2 -135.2 186.1C-156.1 175.9 -176 161 -198.2 144C-220.4 127 -244.8 107.9 -257.2 83.6C-269.6 59.2 -270 29.6 -270.4 0L0 0Z" fill="#0070F4"></path></g><g transform="translate(0, 600)"><path d="M0 -270.4C24 -251.6 48 -232.8 72 -221.6C96 -210.4 120.1 -206.7 142.8 -196.6C165.5 -186.5 186.8 -169.8 207.1 -150.5C227.4 -131.1 246.8 -109.1 257.2 -83.6C267.6 -58 269 -29 270.4 0L0 0Z" fill="#0070F4"></path></g></svg>